# xmcd
#
# Track frame offsets:
#	150
#	23877
#	45618
#	71566
#	92377
#	109056
#	126923
#	149447
#	168881
#	191292
#	211023
#	236078
#	255028
#	276882
#	292332
#
# Disc length: 4230
#
# Revision: 1
# Processed by: cddbd v1.5.1PL0 Copyright (c) Steve Scherf et al.
# Submitted via: CDex 1.51
# Normalized: r0:TDELIM( - ),TSWAP
#
DISCID=d210840f
DTITLE=Grupo Niche Y El Gran Combo - Gran Mano A Mano Salsero - De Colombia Para Puerto Rico
DYEAR=1900
DGENRE=Salsa
TTITLE0=Grupo Niche - Se Parece A Ti
TTITLE1=El Gran Combo - Un Verano En New York
TTITLE2=Grupo Niche - Del Puente Pa'lla
TTITLE3=El Gran Combo - Yo No Hago Más Na
TTITLE4=Grupo Niche - Cali Ají
TTITLE5=El Gran Combo - Azuquita Pal Café
TTITLE6=Grupo Niche - Cali Pachanguero
TTITLE7=El Gran Combo - No Hay Caña Pa' Tanta Gente
TTITLE8=Grupo Niche - Brilla El Sol
TTITLE9=El Gran Combo - Esos Ojitos Negros
TTITLE10=Grupo Niche - Una Aventura
TTITLE11=El Gran Combo - La Muerte
TTITLE12=Grupo Niche - Sin Sentimientos
TTITLE13=El Gran Combo - Los Zapatos de Manacho
TTITLE14=Grupo Niche - Nuestro Señor
EXTD=
EXTT0=
EXTT1=
EXTT2=
EXTT3=
EXTT4=
EXTT5=
EXTT6=
EXTT7=
EXTT8=
EXTT9=
EXTT10=
EXTT11=
EXTT12=
EXTT13=
EXTT14=
PLAYORDER=
